<?xml version="1.0" encoding="UTF-8"?>
<svg width="41px" height="40px" viewBox="0 0 41 40" version="1.1" xmlns="http://www.w3.org/2000/svg" xmlns:xlink="http://www.w3.org/1999/xlink">
    <title>facebook 2</title>
    <g id="Page-1" stroke="none" stroke-width="1" fill="none" fill-rule="evenodd">
        <g id="product-page-ginger-beer" transform="translate(-1081.000000, -3559.000000)" fill="#000000" fill-rule="nonzero">
            <g id="footer" transform="translate(-25.000000, 3298.000000)">
                <g id="facebook" transform="translate(1106.000000, 261.000000)">
                    <path d="M41,20.1217039 C41,9.00608519 31.8245968,0 20.5,0 C9.17540323,0 0,9.00608519 0,20.1217039 C0,30.1647058 7.49655262,38.4892499 17.296875,40 L17.296875,25.9383369 L12.0892137,25.9383369 L12.0892137,20.1217039 L17.296875,20.1217039 L17.296875,15.6884382 C17.296875,10.6458411 20.3553427,7.86044664 25.0397567,7.86044664 C27.2831853,7.86044664 29.6291106,8.25314412 29.6291106,8.25314412 L29.6291106,13.2024342 L27.0434655,13.2024342 C24.4974988,13.2024342 23.7031225,14.7537522 23.7031225,16.3448273 L23.7031225,20.1217039 L29.3885659,20.1217039 L28.4792917,25.9383369 L23.7031225,25.9383369 L23.7031225,40 C33.5034474,38.4892499 41,30.1647058 41,20.1217039 Z" id="Path"></path>
                </g>
            </g>
        </g>
    </g>
</svg>