<?xml version="1.0" encoding="UTF-8"?>
<svg width="405px" height="100px" viewBox="0 0 405 100" version="1.1" xmlns="http://www.w3.org/2000/svg" xmlns:xlink="http://www.w3.org/1999/xlink">
    <title>Leamo</title>
    <g id="Page-1" stroke="none" stroke-width="1" fill="none" fill-rule="evenodd">
        <g id="homepage" transform="translate(-168.000000, -4244.000000)" fill="#000000" fill-rule="nonzero">
            <g id="footer" transform="translate(-6.000000, 4045.000000)">
                <g id="Leamo" transform="translate(174.000000, 199.000000)">
                    <polygon id="Path" points="0 100 62 100 62 86.5622834 15.5353739 86.5622834 15.5353739 0 0 0"></polygon>
                    <path d="M106.565721,99 C110.881389,99 114.788504,98.4002049 118.287067,97.2006146 C121.78563,96.0010243 124.839394,94.3526287 127.44836,92.2554277 C130.057327,90.1582267 132.169414,87.7800472 133.784623,85.120889 C135.399831,82.4617309 136.495991,79.6914124 137.073103,76.8099335 L137.220899,76.0767098 L123.263598,76.0767098 L123.086242,76.626356 C122.492943,78.4650278 121.467866,80.1445628 120.011012,81.6649611 C118.554157,83.1853593 116.720772,84.3983468 114.510857,85.3039234 C112.300943,86.2095 109.759189,86.6622883 106.885595,86.6622883 C102.948569,86.6622883 99.5416755,85.7684795 96.6649153,83.9808619 C93.7881551,82.1932442 91.5692669,79.6193573 90.0082506,76.259201 C88.4472344,72.8990448 87.6667262,68.8527359 87.6667262,64.1202744 L87.6667262,58.2772958 C87.6667262,53.3174444 88.4544483,49.1290169 90.0298923,45.7120131 C91.6053364,42.2950094 93.767921,39.7117082 96.5176463,37.9621096 C99.2673715,36.212511 102.387645,35.3377117 105.878466,35.3377117 C109.369286,35.3377117 112.452786,36.1746731 115.128965,37.8485957 C117.805144,39.5225184 119.903331,42.0583863 121.423527,45.4561995 C122.943724,48.8540127 123.703822,53.1277115 123.703822,58.2772958 L123.703822,64.0952905 L130.900473,54.1625527 L80.2779393,54.1625527 L80.2779393,64.8415493 L138,64.8415493 L138,59.7285357 C138,52.3970223 136.701499,45.9712666 134.104497,40.4512685 C131.507495,34.9312704 127.801313,30.6427261 122.985951,27.5856357 C118.170589,24.5285452 112.440998,23 105.797177,23 C99.1533568,23 93.3780189,24.5895567 88.4711634,27.76867 C83.5643079,30.9477834 79.7590668,35.4016199 77.0554401,41.1301794 C74.3518134,46.8587389 73,53.5346959 73,61.1580505 L73,61.2275709 C73,68.9175493 74.3445995,75.5933252 77.0337984,81.2548989 C79.7229973,86.9164725 83.577504,91.2893828 88.5973185,94.3736297 C93.6171331,97.4578766 99.6066005,99 106.565721,99 Z" id="Path"></path>
                    <path d="M169.336964,99 C172.577564,99 175.622074,98.4735521 178.470497,97.4206563 C181.318919,96.3677605 183.874382,94.8781831 186.136884,92.9519242 C188.399387,91.0256653 190.22732,88.760833 191.620684,86.1574276 L191.94864,86.1574276 L191.94864,97.6834269 L207,97.6834269 L207,47.2053602 C207,42.3097392 205.80507,38.0499179 203.415209,34.4258962 C201.025348,30.8018745 197.655767,27.9915531 193.306466,25.9949319 C188.957165,23.9983106 183.811063,23 177.868161,23 C171.904333,23 166.755165,23.9825335 162.420656,25.9476005 C158.086147,27.9126675 154.693476,30.577368 152.242642,33.941702 C149.791808,37.306036 148.377699,41.099435 148.000314,45.321899 L147.931043,46.114019 L162.082958,46.114019 L162.221501,45.4742298 C162.846386,42.5306189 164.466685,40.1321345 167.082399,38.2787768 C169.698113,36.425419 173.158433,35.4987401 177.463357,35.4987401 C182.107422,35.4987401 185.682652,36.6510136 188.189047,38.9555606 C190.695442,41.2601077 191.94864,44.417707 191.94864,48.4283587 L191.94864,70.2660635 C191.94864,73.4156836 191.1338,76.2513935 189.50412,78.7731932 C187.87444,81.2949929 185.66786,83.2801894 182.884379,84.7287825 C180.100898,86.1773756 176.955367,86.9016722 173.447785,86.9016722 C169.419946,86.9016722 166.196664,85.9695529 163.777941,84.1053144 C161.359217,82.2410759 160.149855,79.7044058 160.149855,76.4953041 L160.149855,76.3690872 C160.149855,73.2521093 161.363366,70.7531592 163.790388,68.8722369 C166.21741,66.9913145 169.667086,65.9199214 174.139416,65.6580575 L199.651828,64.0629367 L199.651828,53.4748597 L172.144618,55.1080632 C163.531162,55.6151071 156.853695,57.7481006 152.112217,61.5070439 C147.370739,65.2659871 145,70.3476692 145,76.7520903 L145,76.8783072 C145,81.2509258 146.021391,85.1043504 148.064174,88.4385809 C150.106956,91.7728114 152.957002,94.3666056 156.614312,96.2199633 C160.271621,98.0733211 164.512505,99 169.336964,99 Z" id="Path"></path>
                    <path d="M222,100 L237.098993,100 L237.098993,53.925872 C237.098993,50.6941539 237.75341,47.8270929 239.062242,45.3246889 C240.371075,42.822285 242.164929,40.8425071 244.443804,39.3853551 C246.722678,37.928203 249.341792,37.199627 252.301144,37.199627 C256.531685,37.199627 259.886474,38.4703906 262.365511,41.0119176 C264.844547,43.5534446 266.084065,46.9988636 266.084065,51.3481745 L266.084065,100 L280.915935,100 L280.915935,53.4054605 C280.915935,50.2416543 281.549358,47.439737 282.816204,44.9997086 C284.08305,42.5596803 285.846499,40.6496596 288.106552,39.2696466 C290.366605,37.8896335 292.975946,37.199627 295.934574,37.199627 C300.40111,37.199627 303.845483,38.5357188 306.267693,41.2079023 C308.689902,43.8800859 309.901007,47.6222501 309.901007,52.4343949 L309.901007,100 L325,100 L325,48.7295084 C325,43.7379877 324.01005,39.3962431 322.030151,35.7042746 C320.050252,32.0123061 317.276403,29.1386016 313.708603,27.0831609 C310.140803,25.0277203 305.949895,24 301.135881,24 C297.66038,24 294.423951,24.5951514 291.426593,25.7854541 C288.429236,26.9757569 285.809218,28.6652486 283.566538,30.8539293 C281.323859,33.04261 279.573078,35.6686578 278.314195,38.7320726 L277.985177,38.7320726 C277.042644,35.5867207 275.604774,32.9217343 273.671567,30.7371136 C271.73836,28.5524928 269.418585,26.8834853 266.71224,25.7300912 C264.005895,24.5766971 260.969627,24 257.603437,24 C252.842992,24 248.685023,25.1891955 245.129529,27.5675865 C241.574036,29.9459774 239.006863,33.0839477 237.428011,36.9814971 L237.098993,36.9814971 L237.098993,25.4693319 L222,25.4693319 L222,100 Z" id="Path"></path>
                    <path d="M371.021265,99 C377.862093,99 383.823629,97.4662045 388.905873,94.3986136 C393.988117,91.3310227 397.941032,86.9613712 400.764619,81.2896591 C403.588206,75.6179471 405,68.8588914 405,61.012492 L405,60.873451 C405,53.0437076 403.582004,46.3025751 400.746013,40.6500536 C397.910021,34.9975321 393.941512,30.6427261 388.840484,27.5856357 C383.739456,24.5285452 377.781287,23 370.965977,23 C364.196031,23 358.260721,24.5305367 353.160048,27.5916101 C348.059374,30.6526835 344.090865,35.0118345 341.254519,40.6690631 C338.418173,46.3262917 337,53.0610877 337,60.873451 L337,61.012492 C337,68.8125444 338.409844,75.5580219 341.229533,81.2489245 C344.049221,86.9398271 348.009402,91.3210653 353.110076,94.3926392 C358.210749,97.4642131 364.181145,99 371.021265,99 Z M371.089311,86.3820339 C367.248921,86.3820339 363.905946,85.3870221 361.060385,83.3969985 C358.214825,81.4069749 356.007026,78.5180733 354.436988,74.7302937 C352.86695,70.9425141 352.081931,66.3699135 352.081931,61.012492 L352.081931,60.873451 C352.081931,55.5254437 352.869077,50.9761976 354.443367,47.2257129 C356.017658,43.4752281 358.227584,40.6029824 361.073144,38.6089759 C363.918705,36.6149694 367.216315,35.6179661 370.965977,35.6179661 C374.790064,35.6179661 378.124888,36.6055552 380.970448,38.5807332 C383.816009,40.5559113 386.018669,43.4281569 387.578429,47.1974702 C389.138189,50.9667834 389.918069,55.5254437 389.918069,60.873451 L389.918069,61.012492 C389.918069,66.3699135 389.142442,70.9425141 387.591188,74.7302937 C386.039934,78.5180733 383.859956,81.4069749 381.051254,83.3969985 C378.242552,85.3870221 374.921905,86.3820339 371.089311,86.3820339 Z" id="Shape"></path>
                </g>
            </g>
        </g>
    </g>
</svg>