<?xml version="1.0" encoding="UTF-8"?>
<svg width="38px" height="37px" viewBox="0 0 38 37" version="1.1" xmlns="http://www.w3.org/2000/svg" xmlns:xlink="http://www.w3.org/1999/xlink">
    <title>linkedin 2</title>
    <g id="Page-1" stroke="none" stroke-width="1" fill="none" fill-rule="evenodd">
        <g id="product-page-ginger-beer" transform="translate(-1020.000000, -3561.000000)" fill="#000000" fill-rule="nonzero">
            <g id="footer" transform="translate(-25.000000, 3298.000000)">
                <g id="linkedin" transform="translate(1045.000000, 263.000000)">
                    <path d="M35.2857144,0 L2.70580426,0 C1.21294665,0 0,1.19754464 0,2.66763292 L0,34.3323671 C0,35.8024554 1.21294665,37 2.70580426,37 L35.2857144,37 C36.778572,37 38,35.8024554 38,34.3323671 L38,2.66763292 C38,1.19754464 36.778572,0 35.2857144,0 Z M11.4848218,31.7142857 L5.85267967,31.7142857 L5.85267967,14.0566962 L11.4933045,14.0566962 L11.4933045,31.7142857 L11.4848218,31.7142857 Z M8.66875074,11.6450893 C6.86205411,11.6450893 5.40312585,10.2162957 5.40312585,8.46540179 C5.40312585,6.71450792 6.86205541,5.28571429 8.66875203,5.28571429 C10.466966,5.28571429 11.9343769,6.71450792 11.9343769,8.46540179 C11.9343769,10.2245526 10.4754487,11.6450893 8.66875203,11.6450893 L8.66875074,11.6450893 Z M32.5968741,31.7142857 L26.964732,31.7142857 L26.964732,23.125 C26.964732,21.0767867 26.9223213,18.4421878 24.0383928,18.4421878 C21.103571,18.4421878 20.6540184,20.6720972 20.6540184,22.9763403 L20.6540184,31.7142857 L15.0218763,31.7142857 L15.0218763,14.0566962 L20.4250009,14.0566962 L20.4250009,16.4683031 L20.5013396,16.4683031 C21.2562498,15.0808028 23.0968745,13.6189727 25.8366081,13.6189727 C31.5366063,13.6189727 32.5968741,17.2776783 32.5968741,22.0348204 L32.5968741,31.7142857 Z" id="Shape"></path>
                </g>
            </g>
        </g>
    </g>
</svg>